#Comment line ignore any data following # character 
#Hierarchical Translation and Rotation (.htr) file 
[Header]	
#Header keywords are followed by a single value 
FileType HTR		#Single word string
DataType HTRS		#Translation followed by rotation and scale data
FileVersion 1		#integer
NumSegments 29		#integer
NumFrames 4		#integer
DataFrameRate 30		#integer, data frame rate in this file
EulerRotationOrder ZYX
CalibrationUnits mm
RotationUnits Degrees
GlobalAxisofGravity Y
BoneLengthAxis Y
ScaleFactor 1.00
[SegmentNames&Hierarchy]
#CHILD	PARENT
MASTER GLOBAL
weapon MASTER
back_slider weapon
front_bottom weapon
front_middle_part1 weapon
front_middle_part2 weapon
front_middle_part3 weapon
front_middle_part4 weapon
front_top weapon
wing_bottom_left weapon
wing_bottom_right weapon
wing_top_left weapon
wing_top_right weapon
front_bottom_rumble_left front_bottom
front_bottom_rumble_right front_bottom
back_rotate_bottom_left front_middle_part3
back_rotate_bottom_right front_middle_part3
back_rotate_top_left front_middle_part3
back_rotate_top_right front_middle_part3
front_middle_part3_left front_middle_part3
front_middle_part3_right front_middle_part3
wing_bottom_left_buckets_1 wing_bottom_left
wing_bottom_left_buckets_2 wing_bottom_left
wing_bottom_left_buckets_3 wing_bottom_left
wing_bottom_right_buckets wing_bottom_right
wing_top_left_buckets wing_top_left
wing_top_left_buckets_1 wing_top_left
wing_top_left_buckets_3 wing_top_left
wing_top_right_buckets wing_top_right
[BasePosition]
#SegmentName Tx, Ty, Tz, Rx, Ry, Rz, BoneLength
MASTER 0.000000 0.000000 0.000000 -90.000000 0.000000 0.000000 10.000000 
weapon 0.000000 0.000000 0.000000 0.000000 0.000000 0.000000 10.000000 
back_slider 0.000000 0.000000 0.000000 0.000000 0.000000 0.000000 10.000000 
front_bottom 0.000000 0.000000 0.000000 0.000000 0.000000 0.000000 10.000000 
front_middle_part1 0.000000 0.000000 0.000000 0.000000 0.000000 0.000000 10.000000 
front_middle_part2 0.000000 0.000000 0.000000 0.000000 0.000000 0.000000 10.000000 
front_middle_part3 0.000000 0.000000 0.000000 0.000000 0.000000 0.000000 10.000000 
front_middle_part4 0.000000 0.000000 0.000000 0.000000 0.000000 0.000000 10.000000 
front_top 0.000000 0.000000 0.000000 0.000000 0.000000 0.000000 10.000000 
wing_bottom_left 0.000000 0.000000 0.000000 0.000000 0.000000 0.000000 10.000000 
wing_bottom_right 0.000000 0.000000 0.000000 0.000000 0.000000 0.000000 10.000000 
wing_top_left 0.000000 0.000000 0.000000 0.000000 0.000000 0.000000 10.000000 
wing_top_right 0.000000 0.000000 0.000000 0.000000 0.000000 0.000000 10.000000 
front_bottom_rumble_left 0.000000 0.000000 0.000000 0.000000 0.000000 0.000000 10.000000 
front_bottom_rumble_right 0.000000 0.000000 0.000000 0.000000 0.000000 0.000000 10.000000 
back_rotate_bottom_left 0.000000 0.000000 0.000000 0.000000 0.000000 0.000000 10.000000 
back_rotate_bottom_right 0.000000 0.000000 0.000000 0.000000 0.000000 0.000000 10.000000 
back_rotate_top_left 0.000000 0.000000 0.000000 0.000000 0.000000 0.000000 10.000000 
back_rotate_top_right 0.000000 0.000000 0.000000 0.000000 0.000000 0.000000 10.000000 
front_middle_part3_left 0.000000 0.000000 0.000000 0.000000 0.000000 0.000000 10.000000 
front_middle_part3_right 0.000000 0.000000 0.000000 0.000000 0.000000 0.000000 10.000000 
wing_bottom_left_buckets_1 0.000000 0.000000 0.000000 0.000000 0.000000 0.000000 10.000000 
wing_bottom_left_buckets_2 0.000000 0.000000 0.000000 0.000000 0.000000 0.000000 10.000000 
wing_bottom_left_buckets_3 0.000000 0.000000 0.000000 0.000000 0.000000 0.000000 10.000000 
wing_bottom_right_buckets 0.000000 0.000000 0.000000 0.000000 0.000000 0.000000 10.000000 
wing_top_left_buckets 0.000000 0.000000 0.000000 0.000000 0.000000 0.000000 10.000000 
wing_top_left_buckets_1 0.000000 0.000000 0.000000 0.000000 0.000000 0.000000 10.000000 
wing_top_left_buckets_3 0.000000 0.000000 0.000000 0.000000 0.000000 0.000000 10.000000 
wing_top_right_buckets 0.000000 0.000000 0.000000 0.000000 0.000000 0.000000 10.000000 
#Beginning of Data. Separated by tabs
#Fr	Tx	Ty	Tz	Rx	Ry	Rz	SF
[MASTER]
18 -0.000019 0.000000 0.000000 0.000000 -0.000000 0.000000 0.000019
19 -0.000019 0.000000 0.000000 0.000000 -0.000000 0.000000 0.000019
20 -0.000019 0.000000 0.000000 0.000000 -0.000000 0.000000 0.000019
21 -0.000019 0.000000 0.000000 0.000000 -0.000000 0.000000 0.000019
[weapon]
18 -0.000076 -79.014702 86.001579 0.000000 0.000000 -0.000020 116.788681
19 -0.000076 -79.014702 86.001579 0.000000 0.000000 -0.000020 116.788681
20 -0.000076 -79.014702 86.001579 0.000000 0.000000 -0.000020 116.788681
21 -0.000076 -79.014702 86.001579 0.000000 0.000000 -0.000020 116.788681
[back_slider]
18 0.000076 -6.340953 -85.991821 0.000000 -0.000000 0.000000 86.225296
19 0.000076 -12.188235 -85.991821 0.000000 -0.000000 0.000000 86.851288
20 0.000076 -18.035519 -85.991821 0.000000 -0.000000 0.000000 87.862808
21 0.000076 -23.882799 -85.991821 0.000000 -0.000000 0.000000 89.246750
[front_bottom]
18 0.000010 689.775696 -217.456390 7.935938 -0.001541 179.998230 723.241150
19 0.000000 692.044189 -217.628159 7.722776 -0.001544 179.998230 725.456543
20 0.000005 694.425232 -217.801407 7.504683 -0.001548 179.998230 727.780090
21 0.000010 696.806213 -217.974670 7.276703 -0.001551 179.998245 730.104004
[front_middle_part1]
18 0.000000 519.313477 -85.992035 0.001246 -50.642590 0.001246 526.384949
19 0.000000 519.313477 -85.992035 0.001229 -55.384754 0.001229 526.384949
20 0.000000 519.313477 -85.992035 0.001214 -60.180912 0.001214 526.384949
21 0.000000 519.313477 -85.992035 0.001203 -65.014732 0.001203 526.384949
[front_middle_part2]
18 0.000000 477.040344 -85.992035 0.002981 43.630600 0.002981 484.728912
19 0.000000 477.040344 -85.992035 0.003256 47.714317 0.003256 484.728912
20 0.000000 477.040344 -85.992035 0.003586 51.798004 0.003586 484.728912
21 0.000000 477.040344 -85.992035 0.003994 55.824612 0.003994 484.728912
[front_middle_part3]
18 0.000038 -210.000290 -85.991974 0.000000 -0.000000 0.000000 226.924515
19 0.000038 -212.797409 -85.991974 0.000000 -0.000000 0.000000 229.515472
20 0.000038 -215.594513 -85.991974 0.000000 -0.000000 0.000000 232.111206
21 0.000057 -218.125458 -85.991974 0.000000 -0.000000 0.000000 234.463928
[front_middle_part4]
18 0.000000 -443.853668 -85.992035 0.000000 -0.000000 0.000000 452.106964
19 0.000000 -443.853668 -85.992035 0.000000 -0.000000 0.000000 452.106964
20 0.000000 -443.853668 -85.992035 0.000000 -0.000000 0.000000 452.106964
21 0.000000 -443.853668 -85.992035 0.000000 -0.000000 0.000000 452.106964
[front_top]
18 0.000013 604.335999 -161.869202 -7.863202 0.001770 0.001542 625.638611
19 0.000025 611.328186 -162.231903 -8.616896 0.001780 0.001530 632.488220
20 0.000038 618.320313 -162.594604 -9.385855 0.001790 0.001518 639.341064
21 0.000019 625.032349 -162.942886 -10.155231 0.001800 0.001506 645.922485
[wing_bottom_left]
18 -124.333710 235.191696 -217.766312 171.682770 54.570618 169.828735 343.796692
19 -124.333710 235.191696 -217.766312 170.937820 54.493366 168.914444 343.796692
20 -124.333710 235.191696 -217.766312 170.197601 54.405029 168.004761 343.796692
21 -124.333710 235.191696 -217.766312 169.460938 54.311142 167.098465 343.796692
[wing_bottom_right]
18 124.947586 235.191696 -217.766144 0.000000 54.999989 0.000000 344.019073
19 124.947586 235.191696 -217.766144 0.000000 54.999989 0.000000 344.019073
20 124.947586 235.191696 -217.766144 0.000000 54.999989 0.000000 344.019073
21 124.947586 235.191696 -217.766144 0.000000 54.999989 0.000000 344.019073
[wing_top_left]
18 -124.333710 235.191696 62.502743 -170.181091 -54.399609 167.985733 273.277527
19 -124.333710 235.191696 62.502743 -169.323746 -54.292347 166.929306 273.277527
20 -124.333710 235.191696 62.502743 -168.473267 -54.172157 165.879486 273.277527
21 -124.333710 235.191696 62.502743 -167.645233 -54.041073 164.855576 273.277527
[wing_top_right]
18 131.595657 235.191696 62.502682 -0.000000 -55.000015 0.000000 276.657074
19 131.595657 235.191696 62.502682 -0.000000 -55.000015 0.000000 276.657074
20 131.595657 235.191696 62.502682 -0.000000 -55.000015 0.000000 276.657074
21 131.595657 235.191696 62.502682 -0.000000 -55.000015 0.000000 276.657074
[front_bottom_rumble_left]
18 163.070297 263.743958 -16.969442 -129.881882 18.229330 75.387009 310.549133
19 163.070297 263.743958 -16.969442 -129.881882 18.229330 75.387009 310.549133
20 163.070297 263.743958 -16.969442 -129.881882 18.229330 75.387009 310.549133
21 163.070297 263.743958 -16.969442 -129.881882 18.229330 75.387009 310.549133
[front_bottom_rumble_right]
18 -163.070480 263.743835 -16.969442 -50.118145 18.229362 104.612976 310.549133
19 -163.070480 263.743835 -16.969442 -50.118145 18.229362 104.612976 310.549133
20 -163.070480 263.743835 -16.969442 -50.118145 18.229362 104.612976 310.549133
21 -163.070480 263.743835 -16.969442 -50.118145 18.229362 104.612976 310.549133
[back_rotate_bottom_left]
18 -38.067558 -195.870575 -38.097980 0.000000 -0.000000 0.000000 203.140045
19 -38.067558 -195.870575 -38.097980 0.000000 -0.000000 0.000000 203.140045
20 -38.067558 -195.870575 -38.097980 0.000000 -0.000000 0.000000 203.140045
21 -38.067558 -195.870575 -38.097980 0.000000 -0.000000 0.000000 203.140045
[back_rotate_bottom_right]
18 38.098610 -195.870575 -38.057903 0.000000 -0.000000 0.000000 203.138351
19 38.098610 -195.870575 -38.057903 0.000000 -0.000000 0.000000 203.138351
20 38.098610 -195.870575 -38.057903 0.000000 -0.000000 0.000000 203.138351
21 38.098610 -195.870575 -38.057903 0.000000 -0.000000 0.000000 203.138351
[back_rotate_top_left]
18 -38.074085 -195.870575 38.105885 0.000000 -0.000000 0.000000 203.142746
19 -38.074085 -195.870575 38.105885 0.000000 -0.000000 0.000000 203.142746
20 -38.074085 -195.870575 38.105885 0.000000 -0.000000 0.000000 203.142746
21 -38.074085 -195.870575 38.105885 0.000000 -0.000000 0.000000 203.142746
[back_rotate_top_right]
18 38.111603 -195.870575 38.079086 0.000000 -0.000000 0.000000 203.144760
19 38.111603 -195.870575 38.079086 0.000000 -0.000000 0.000000 203.144760
20 38.111603 -195.870575 38.079086 0.000000 -0.000000 0.000000 203.144760
21 38.111603 -195.870575 38.079086 0.000000 -0.000000 0.000000 203.144760
[front_middle_part3_left]
18 -90.176392 364.727142 0.462952 90.002296 -0.000000 0.002347 375.709839
19 -90.176392 364.727142 0.462952 90.002296 -0.000000 0.002347 375.709839
20 -90.176392 364.727142 0.462952 90.002296 -0.000000 0.002347 375.709839
21 -90.176392 364.727142 0.462952 90.002296 -0.000000 0.002347 375.709839
[front_middle_part3_right]
18 91.046051 364.727081 0.046265 -90.000000 0.000003 180.000000 375.919159
19 91.046051 364.727081 0.046265 -90.000000 0.000003 180.000000 375.919159
20 91.046051 364.727081 0.046265 -90.000000 0.000003 180.000000 375.919159
21 91.046051 364.727081 0.046265 -90.000000 0.000003 180.000000 375.919159
[wing_bottom_left_buckets_1]
18 -47.610477 -288.454193 -9.889640 -0.000027 0.000020 -0.000035 292.524170
19 -47.610477 -288.454193 -9.889640 -0.000027 0.000020 -0.000035 292.524170
20 -47.610477 -288.454193 -9.889640 -0.000027 0.000020 -0.000035 292.524170
21 -47.610477 -288.454193 -9.889640 -0.000027 0.000020 -0.000035 292.524170
[wing_bottom_left_buckets_2]
18 -47.610565 -358.672546 -9.889595 -0.000031 -0.000003 -0.000031 361.953827
19 -47.610565 -358.672546 -9.889595 -0.000031 -0.000003 -0.000031 361.953827
20 -47.610565 -358.672546 -9.889595 -0.000031 -0.000003 -0.000031 361.953827
21 -47.610565 -358.672546 -9.889595 -0.000031 -0.000003 -0.000031 361.953827
[wing_bottom_left_buckets_3]
18 -47.610672 -428.104828 -9.889513 -0.000027 0.000020 -0.000035 430.857635
19 -47.610672 -428.104828 -9.889513 -0.000027 0.000020 -0.000035 430.857635
20 -47.610672 -428.104828 -9.889513 -0.000027 0.000020 -0.000035 430.857635
21 -47.610672 -428.104828 -9.889513 -0.000027 0.000020 -0.000035 430.857635
[wing_bottom_right_buckets]
18 -47.962635 -358.672546 9.386807 0.000027 0.000061 -0.000035 361.986908
19 -47.962635 -358.672546 9.386807 0.000027 0.000061 -0.000035 361.986908
20 -47.962635 -358.672546 9.386807 0.000027 0.000061 -0.000035 361.986908
21 -47.962635 -358.672546 9.386807 0.000027 0.000061 -0.000035 361.986908
[wing_top_left_buckets]
18 -45.484066 -358.586609 10.598831 0.001750 5.780678 0.001750 361.615112
19 -45.484066 -358.586609 10.598831 0.001770 6.910028 0.001770 361.615112
20 -45.484066 -358.586609 10.598831 0.001774 7.162729 0.001774 361.615112
21 -45.484066 -358.586609 10.598831 0.001782 7.603818 0.001782 361.615112
[wing_top_left_buckets_1]
18 -45.484005 -287.973450 10.598879 0.000027 0.000000 -0.000035 291.735931
19 -45.484005 -287.973450 10.598879 0.000027 0.000000 -0.000035 291.735931
20 -45.484005 -287.973450 10.598879 0.000027 0.000000 -0.000035 291.735931
21 -45.484005 -287.973450 10.598879 0.000027 0.000000 -0.000035 291.735931
[wing_top_left_buckets_3]
18 -45.484154 -426.601654 10.598794 0.000027 0.000000 -0.000035 429.150452
19 -45.484154 -426.601654 10.598794 0.000027 0.000000 -0.000035 429.150452
20 -45.484154 -426.601654 10.598794 0.000027 0.000000 -0.000035 429.150452
21 -45.484154 -426.601654 10.598794 0.000027 0.000000 -0.000035 429.150452
[wing_top_right_buckets]
18 -46.906902 -358.586700 -9.449236 -0.000044 -0.000038 -0.000035 361.765076
19 -46.906902 -358.586700 -9.449236 -0.000044 -0.000038 -0.000035 361.765076
20 -46.906902 -358.586700 -9.449236 -0.000044 -0.000038 -0.000035 361.765076
21 -46.906902 -358.586700 -9.449236 -0.000044 -0.000038 -0.000035 361.765076
